# xmcd
#
# Track frame offsets: 
#        150
#        10810
#        22459
#        32025
#        45172
#        55571
#        70891
#        79093
#        90480
#        102483
#        115979
#        127363
#        139868
#        151965
#        162865
#        174110
#        185807
#        195410
#        206261
#        221122
#        232532
#        243662
#
# Disc length: 3411 seconds
#
# Revision: 1
# Processed by: cddbd v1.5.2PL0 Copyright (c) Steve Scherf et al.
# Submitted via: ExactAudioCopyFreeDBPlugin 1.0
#
DISCID=280d5116
DTITLE=Tom Jones - Sings Country
DYEAR=2000
DGENRE=Country
TTITLE0=Say You'll Stay Until Tomorrow
TTITLE1=Green, Green Grass Of Home
TTITLE2=Darlin'
TTITLE3=Born To Lose
TTITLE4=Lady Lay Down
TTITLE5=I Can't Stop Loving You
TTITLE6=On The Road Again
TTITLE7=Tom Jones and Tanya Tucker - I'm Leaving It All Up To You
TTITLE8=You Win Again
TTITLE9=He Stopped Loving Her Today
TTITLE10=Four Walls
TTITLE11=Behind Closed Doors
TTITLE12=Funny How Time Slips Away
TTITLE13=Drivin' My Life Away
TTITLE14=The Streets Of Laredo
TTITLE15=Make The World Go Away
TTITLE16=Nine To Five
TTITLE17=Release Me
TTITLE18=Help Me Make It Through The Night
TTITLE19=I'm So Lonesome I Could Cry
TTITLE20=Rose Colored Glasses
TTITLE21=The Most Beautiful Girl
EXTD=
EXTT0=
EXTT1=
EXTT2=
EXTT3=
EXTT4=
EXTT5=
EXTT6=
EXTT7=
EXTT8=
EXTT9=
EXTT10=
EXTT11=
EXTT12=
EXTT13=
EXTT14=
EXTT15=
EXTT16=
EXTT17=
EXTT18=
EXTT19=
EXTT20=
EXTT21=
PLAYORDER=
